<svg width="1280" height="720" xmlns="http://www.w3.org/2000/svg" xmlns:xlink="http://www.w3.org/1999/xlink" overflow="hidden"><g><rect x="0" y="0" width="1280" height="720" fill="#FFFFFF"/><path d="M71 96.1964C71 58.5326 101.533 28 139.196 28L1152.8 28C1190.47 28 1221 58.5326 1221 96.1964L1221 616.803C1221 654.467 1190.47 685 1152.8 685L139.196 685C101.533 685 71 654.467 71 616.803Z" stroke="#000000" stroke-width="6" stroke-miterlimit="8" fill="none" fill-rule="evenodd"/><path d="M71.5001 209.5 982.985 209.5" stroke="#000000" stroke-width="3" stroke-miterlimit="8" stroke-dasharray="24 9" fill="none" fill-rule="evenodd"/><path d="M0 0 1.6 657.743" stroke="#000000" stroke-width="3" stroke-miterlimit="8" stroke-dasharray="24 9" fill="none" fill-rule="evenodd" transform="matrix(1 0 0 -1 979.5 686.243)"/><path d="M981.5 322.5 1222.11 322.5" stroke="#000000" stroke-width="3" stroke-miterlimit="8" stroke-dasharray="24 9" fill="none" fill-rule="evenodd"/><text font-family="Aptos,Aptos_MSFontService,sans-serif" font-weight="700" font-size="37.3333" transform="translate(562.825 121)">Input panel</text><text font-family="Aptos,Aptos_MSFontService,sans-serif" font-weight="700" font-size="37.3333" transform="translate(1041.86 182)">Button</text><text font-family="Aptos,Aptos_MSFontService,sans-serif" font-weight="700" font-size="37.3333" transform="translate(1041.86 227)">panel</text><text font-family="Aptos,Aptos_MSFontService,sans-serif" font-weight="700" font-size="37.3333" transform="translate(1041.86 474)">History</text><text font-family="Aptos,Aptos_MSFontService,sans-serif" font-weight="700" font-size="37.3333" transform="translate(1041.86 519)">pane</text><text font-family="Aptos,Aptos_MSFontService,sans-serif" font-weight="700" font-size="37.3333" transform="translate(1126.86 519)">l</text><text font-family="Aptos,Aptos_MSFontService,sans-serif" font-weight="700" font-size="37.3333" transform="translate(453.093 431)">Canvas</text><text font-family="Aptos,Aptos_MSFontService,sans-serif" font-weight="700" font-size="37.3333" transform="translate(453.093 476)">pane</text><text font-family="Aptos,Aptos_MSFontService,sans-serif" font-weight="700" font-size="37.3333" transform="translate(538.093 476)">l</text><text font-family="Aptos,Aptos_MSFontService,sans-serif" font-style="italic" font-weight="400" font-size="24" transform="translate(136.873 104)">Name:</text><text font-family="Aptos,Aptos_MSFontService,sans-serif" font-style="italic" font-weight="400" font-size="24" transform="translate(136.873 142)">Expression:</text></g></svg>